<svg width="16" height="19" viewBox="0 0 16 19" fill="none" xmlns="http://www.w3.org/2000/svg">
<path d="M7.72361 8.33333C8.57226 8.33333 9.40186 8.089 10.1075 7.63108C10.8131 7.17328 11.3631 6.52254 11.6879 5.76118C12.0126 4.99982 12.0977 4.16205 11.932 3.35379C11.7665 2.54554 11.3578 1.80311 10.7577 1.22039C10.1577 0.637673 9.39311 0.240832 8.56076 0.080065C7.72833 -0.08071 6.8656 0.00180669 6.08157 0.317165C5.29749 0.632532 4.62735 1.16659 4.15586 1.85179C3.68437 2.537 3.43271 3.34258 3.43271 4.16666C3.43408 5.27133 3.88659 6.33036 4.69099 7.11148C5.4954 7.89258 6.586 8.332 7.72361 8.33333ZM7.72361 1.66666C8.23276 1.66666 8.73059 1.81329 9.15393 2.08799C9.57736 2.3627 9.90733 2.75314 10.1021 3.20996C10.297 3.66677 10.348 4.16944 10.2487 4.65439C10.1493 5.13935 9.90415 5.58481 9.54406 5.93443C9.18405 6.28406 8.72527 6.52216 8.2259 6.61863C7.72644 6.71509 7.20878 6.66558 6.73833 6.47636C6.26796 6.28715 5.86586 5.96671 5.58296 5.55559C5.30007 5.14447 5.14907 4.66112 5.14907 4.16666C5.14907 3.50362 5.42031 2.86774 5.90313 2.3989C6.38596 1.93006 7.04084 1.66666 7.72361 1.66666ZM0 17.5V14.1667C0.0013645 13.062 0.453873 12.003 1.25828 11.2218C2.06268 10.4407 3.1533 10.0013 4.29089 10H11.1563C12.2939 10.0013 13.3845 10.4407 14.1889 11.2218C14.9933 12.003 15.4458 13.062 15.4472 14.1667V17.5C15.4472 17.721 15.3568 17.933 15.1959 18.0892C15.0349 18.2455 14.8166 18.3333 14.589 18.3333C14.3614 18.3333 14.1431 18.2455 13.9822 18.0892C13.8213 17.933 13.7309 17.721 13.7309 17.5V14.1667C13.7309 13.5037 13.4596 12.8677 12.9768 12.3989C12.494 11.9301 11.8391 11.6667 11.1563 11.6667H4.29089C3.60808 11.6667 2.95324 11.9301 2.47042 12.3989C1.9876 12.8677 1.71636 13.5037 1.71636 14.1667V17.5C1.71636 17.721 1.62594 17.933 1.465 18.0892C1.30406 18.2455 1.08578 18.3333 0.858178 18.3333C0.630572 18.3333 0.412295 18.2455 0.251352 18.0892C0.0904177 17.933 0 17.721 0 17.5Z" fill="white"/>
</svg>
