<svg width="18" height="15" viewBox="0 0 18 15" fill="none" xmlns="http://www.w3.org/2000/svg">
<path d="M12.5657 0C15.1984 0 17.332 2.00662 17.332 4.8159C17.332 10.4344 10.8326 13.6451 8.66606 14.849C6.49951 13.6451 0 10.4344 0 4.8159C0 2.00662 2.16651 0 4.7663 0C6.37818 0 7.79941 0.802648 8.66606 1.6053C9.53257 0.802648 10.9538 0 12.5657 0ZM9.47544 12.5245C10.2388 12.0783 10.9279 11.6344 11.5726 11.1593C14.1559 9.25698 15.5988 7.17807 15.5988 4.8159C15.5988 2.92165 14.2669 1.6053 12.5657 1.6053C11.6332 1.6053 10.6245 2.0628 9.89134 2.74024L8.66606 3.87519L7.44063 2.74024C6.70749 2.0628 5.69877 1.6053 4.7663 1.6053C3.0851 1.6053 1.73321 2.93449 1.73321 4.8159C1.73321 7.17892 3.17696 9.25698 5.75856 11.1593C6.40418 11.6344 7.09313 12.0783 7.85661 12.5238C8.11568 12.6755 8.37224 12.8207 8.66606 12.9829C8.95977 12.8207 9.21633 12.6755 9.47544 12.5245Z" fill="white"/>
</svg>
