<svg width="17" height="17" viewBox="0 0 17 17" fill="none" xmlns="http://www.w3.org/2000/svg">
<path d="M7.2018 0C3.23297 0 0 3.3661 0 7.49838C0 11.6306 3.23297 15.0033 7.2018 15.0033C8.89701 15.0033 10.4561 14.3848 11.6883 13.3578L14.6881 16.4795C14.8395 16.6306 15.0417 16.7139 15.2514 16.7117C15.4611 16.7095 15.6616 16.6219 15.81 16.4676C15.9584 16.3133 16.0428 16.1047 16.0453 15.8863C16.0477 15.668 15.9679 15.4574 15.823 15.2995L12.8232 12.1762C13.8104 10.8913 14.4052 9.26544 14.4052 7.49838C14.4052 3.3661 11.1706 0 7.2018 0ZM7.2018 1.66669C10.3055 1.66669 12.8029 4.26686 12.8029 7.49838C12.8029 10.7299 10.3055 13.3366 7.2018 13.3366C4.09808 13.3366 1.60075 10.7299 1.60075 7.49838C1.60075 4.26686 4.09808 1.66669 7.2018 1.66669Z" fill="#443297"/>
</svg>
